HIERARCHY
ROOT Hips
{
  OFFSET 5.84602e-005 68.8428 3.50346
  CHANNELS 6 Xposition Yposition Zposition Zrotation Xrotation Yrotation
  JOINT Spine
  {
    OFFSET 0 8.597 -4.6522
    CHANNELS 3 Zrotation Xrotation Yrotation
    JOINT Spine1
    {
      OFFSET 0 7.8454 0.4098
      CHANNELS 3 Zrotation Xrotation Yrotation
      JOINT Spine2
      {
        OFFSET 0 9.7078 -2.1609
        CHANNELS 3 Zrotation Xrotation Yrotation
        JOINT Neck
        {
          OFFSET 0 21.8761 -0.4549
          CHANNELS 3 Zrotation Xrotation Yrotation
          JOINT Head
          {
            OFFSET 0 12.3537 3.3602
            CHANNELS 3 Zrotation Xrotation Yrotation
            End Site
            {
              OFFSET 0.0001 18.9506 0.5657
            }
          }
        }
        JOINT LeftShoulder
        {
          OFFSET 2.2086 21.1115 7.2329
          CHANNELS 3 Zrotation Xrotation Yrotation
          JOINT LeftArm
          {
            OFFSET 13.1193 3.0282 -4.8998
            CHANNELS 3 Zrotation Xrotation Yrotation
            JOINT LeftForeArm
            {
              OFFSET 27.4081 -0.0973053 -0.2375
              CHANNELS 3 Zrotation Xrotation Yrotation
              JOINT LeftHand
              {
                OFFSET 22.8641 0.0662994 -0.1369
                CHANNELS 3 Zrotation Xrotation Yrotation
                JOINT LeftHandIndex1
                {
                  OFFSET 8.8614 0.775009 2.4612
                  CHANNELS 3 Zrotation Xrotation Yrotation
                  JOINT LeftHandIndex2
                  {
                    OFFSET 3.3146 -0.808304 0.5841
                    CHANNELS 3 Zrotation Xrotation Yrotation
                    JOINT LeftHandIndex3
                    {
                      OFFSET 2.2628 -0.552002 0.3989
                      CHANNELS 3 Zrotation Xrotation Yrotation
                      End Site
                      {
                        OFFSET 1.6102 -0.4807 0.2612
                      }
                    }
                  }
                }
                JOINT LeftHandMiddle1
                {
                  OFFSET 8.9937 0.895004 0.2143
                  CHANNELS 3 Zrotation Xrotation Yrotation
                  JOINT LeftHandMiddle2
                  {
                    OFFSET 4.0984 0.0113983 -0.0242
                    CHANNELS 3 Zrotation Xrotation Yrotation
                    JOINT LeftHandMiddle3
                    {
                      OFFSET 2.2716 0.00689697 -0.0138001
                      CHANNELS 3 Zrotation Xrotation Yrotation
                      End Site
                      {
                        OFFSET 2.0404 -0.1441 0.0027
                      }
                    }
                  }
                }
                JOINT LeftHandRing1
                {
                  OFFSET 8.5234 0.597198 -2.0164
                  CHANNELS 3 Zrotation Xrotation Yrotation
                  JOINT LeftHandRing2
                  {
                    OFFSET 3.7188 -0.188293 -0.2328
                    CHANNELS 3 Zrotation Xrotation Yrotation
                    JOINT LeftHandRing3
                    {
                      OFFSET 2.1191 -0.106598 -0.1332
                      CHANNELS 3 Zrotation Xrotation Yrotation
                      End Site
                      {
                        OFFSET 1.8737 -0.2304 -0.0886
                      }
                    }
                  }
                }
                JOINT LeftHandPinky1
                {
                  OFFSET 7.9094 -0.601089 -3.4825
                  CHANNELS 3 Zrotation Xrotation Yrotation
                  JOINT LeftHandPinky2
                  {
                    OFFSET 2.2874 -0.477005 -0.6314
                    CHANNELS 3 Zrotation Xrotation Yrotation
                    JOINT LeftHandPinky3
                    {
                      OFFSET 1.6774 -0.349396 -0.4633
                      CHANNELS 3 Zrotation Xrotation Yrotation
                      End Site
                      {
                        OFFSET 1.4888 -0.4091 -0.3416
                      }
                    }
                  }
                }
                JOINT LeftHandThumb1
                {
                  OFFSET 1.833 -1.3875 1.3896
                  CHANNELS 3 Zrotation Xrotation Yrotation
                  JOINT LeftHandThumb2
                  {
                    OFFSET 3.4129 -1.121 2.5732
                    CHANNELS 3 Zrotation Xrotation Yrotation
                    JOINT LeftHandThumb3
                    {
                      OFFSET 2.2474 -0.804199 1.6192
                      CHANNELS 3 Zrotation Xrotation Yrotation
                      End Site
                      {
                        OFFSET 1.6527 -0.5689 1.1317
                      }
                    }
                  }
                }
              }
            }
          }
        }
        JOINT RightShoulder
        {
          OFFSET -2.2086 21.1115 7.2329
          CHANNELS 3 Zrotation Xrotation Yrotation
          JOINT RightArm
          {
            OFFSET -13.1216 3.0287 -4.9007
            CHANNELS 3 Zrotation Xrotation Yrotation
            JOINT RightForeArm
            {
              OFFSET -27.4081 -0.0973053 -0.2375
              CHANNELS 3 Zrotation Xrotation Yrotation
              JOINT RightHand
              {
                OFFSET -22.8641 0.0664063 -0.1369
                CHANNELS 3 Zrotation Xrotation Yrotation
                JOINT RightHandIndex1
                {
                  OFFSET -8.8614 0.774994 2.4612
                  CHANNELS 3 Zrotation Xrotation Yrotation
                  JOINT RightHandIndex2
                  {
                    OFFSET -3.3146 -0.808304 0.5841
                    CHANNELS 3 Zrotation Xrotation Yrotation
                    JOINT RightHandIndex3
                    {
                      OFFSET -2.2628 -0.552002 0.3989
                      CHANNELS 3 Zrotation Xrotation Yrotation
                      End Site
                      {
                        OFFSET -1.6102 -0.4807 0.2612
                      }
                    }
                  }
                }
                JOINT RightHandMiddle1
                {
                  OFFSET -8.9937 0.894989 0.2143
                  CHANNELS 3 Zrotation Xrotation Yrotation
                  JOINT RightHandMiddle2
                  {
                    OFFSET -4.0984 0.0113983 -0.0242
                    CHANNELS 3 Zrotation Xrotation Yrotation
                    JOINT RightHandMiddle3
                    {
                      OFFSET -2.2716 0.00691223 -0.0138001
                      CHANNELS 3 Zrotation Xrotation Yrotation
                      End Site
                      {
                        OFFSET -2.0404 -0.1441 0.0027
                      }
                    }
                  }
                }
                JOINT RightHandRing1
                {
                  OFFSET -8.5234 0.597198 -2.0164
                  CHANNELS 3 Zrotation Xrotation Yrotation
                  JOINT RightHandRing2
                  {
                    OFFSET -3.7188 -0.188309 -0.2328
                    CHANNELS 3 Zrotation Xrotation Yrotation
                    JOINT RightHandRing3
                    {
                      OFFSET -2.1191 -0.106598 -0.1332
                      CHANNELS 3 Zrotation Xrotation Yrotation
                      End Site
                      {
                        OFFSET -1.8737 -0.2304 -0.0886
                      }
                    }
                  }
                }
                JOINT RightHandPinky1
                {
                  OFFSET -7.9094 -0.601105 -3.4825
                  CHANNELS 3 Zrotation Xrotation Yrotation
                  JOINT RightHandPinky2
                  {
                    OFFSET -2.2874 -0.477005 -0.6314
                    CHANNELS 3 Zrotation Xrotation Yrotation
                    JOINT RightHandPinky3
                    {
                      OFFSET -1.6774 -0.349396 -0.4633
                      CHANNELS 3 Zrotation Xrotation Yrotation
                      End Site
                      {
                        OFFSET -1.4888 -0.4091 -0.3416
                      }
                    }
                  }
                }
                JOINT RightHandThumb1
                {
                  OFFSET -1.833 -1.38751 1.3896
                  CHANNELS 3 Zrotation Xrotation Yrotation
                  JOINT RightHandThumb2
                  {
                    OFFSET -3.41299 -1.12099 2.5732
                    CHANNELS 3 Zrotation Xrotation Yrotation
                    JOINT RightHandThumb3
                    {
                      OFFSET -2.24741 -0.804108 1.6192
                      CHANNELS 3 Zrotation Xrotation Yrotation
                      End Site
                      {
                        OFFSET -1.6527 -0.5689 1.1317
                      }
                    }
                  }
                }
              }
            }
          }
        }
      }
    }
  }
  JOINT RightUpLeg
  {
    OFFSET -9.1966 3.8861 -0.7581
    CHANNELS 3 Zrotation Xrotation Yrotation
    JOINT RightLeg
    {
      OFFSET -0.7359 -41.0265 0
      CHANNELS 3 Zrotation Xrotation Yrotation
      JOINT RightFoot
      {
        OFFSET 0 -40.2855 0
        CHANNELS 3 Zrotation Xrotation Yrotation
        JOINT RightToeBase
        {
          OFFSET 0 -5.6122 11.7359
          CHANNELS 3 Zrotation Xrotation Yrotation
          End Site
          {
            OFFSET 0 0 7.8731
          }
        }
      }
    }
  }
  JOINT LeftUpLeg
  {
    OFFSET 9.1965 3.8864 -0.7581
    CHANNELS 3 Zrotation Xrotation Yrotation
    JOINT LeftLeg
    {
      OFFSET 0.7359 -41.0268 0
      CHANNELS 3 Zrotation Xrotation Yrotation
      JOINT LeftFoot
      {
        OFFSET 0 -40.2855 0
        CHANNELS 3 Zrotation Xrotation Yrotation
        JOINT LeftToeBase
        {
          OFFSET 0 -5.6122 11.7359
          CHANNELS 3 Zrotation Xrotation Yrotation
          End Site
          {
            OFFSET 0 0 7.8731
          }
        }
      }
    }
  }
}
MOTION
Frames:	4
Frame Time:	0.0333333
5.84602e-005 68.8428 3.50346 0 0 -0 0 0 -0 0 0 -0 0 0 -0 0 0 -0 0 0 -0 0 0 -0 0 0 -0 0 0 -0 0 0 -0 0 0 -0 0 0 -0 0 0 -0 0 0 -0 -0.0146107 -8.87603e-005 -2.63497e-007 2.99804e-018 -2.42657e-020 -1.42182e-022 0 0 -0 -0.0187562 -0.001176 5.858e-005 5.06224e-018 3.88251e-019 1.21329e-020 0 0 -0 -0.012269 -0.00324817 0.000675346 -1.74678e-018 3.88251e-019 -0 0 0 -0 0 0 -0 0 0 -0 0 0 -0 0 0 -0 0 0 -0 0 0 -0 0 0 -0 0 0 -0 0 0 -0 0 0 -0 0.0149955 -9.10982e-005 2.64101e-007 -9.69331e-018 1.21329e-020 -4.7394e-023 0 0 -0 0.0189956 -0.00119102 -5.96516e-005 -5.41541e-019 0 2.42657e-020 0 0 -0 0.0122698 -0.00324857 -0.000673756 -2.00796e-019 0 -1.94126e-019 0 0 -0 0 0 -0 0 0 -0 3.39842 1.33031 -0.0637918 -5.65207e-008 0.834868 -0.000436188 -3.39935 -2.16518 -0.0642563 -8.89002e-024 -1.18485e-023 -1.48106e-024 -3.39844 1.35642 0.0640283 -3.18788e-007 0.782166 -0.000588827 3.39931 -2.13858 0.0634662 1.1399e-023 0 -0 
-4.80829 89.4058 4.71717 -133.333 -5.18128 -4.3875e-008 -0.0715439 -3.89556 -0.186457 -0.156363 -7.79081 -0.379111 -0.15634 -7.79081 -0.379114 0.000296412 12.5376 -0.000167843 -9.40908e-006 -6.51607 5.64986e-007 -15.0135 9.78834 16.7581 -0.472405 2.43544 -56.8464 -13.1084 -5.24619 -42.1446 -25.4719 -34.2682 -15.1992 -2.04121e-006 -4.21496e-007 2.98468e-007 -2.36431e-006 -2.36107e-006 9.19242e-008 -2.04121e-006 -4.21496e-007 2.98468e-007 -2.04121e-006 -4.21496e-007 2.98468e-007 -0.0146318 -9.23016e-005 -4.23416e-007 -2.04117e-006 -4.21533e-007 2.98416e-007 -2.04121e-006 -4.21496e-007 2.98468e-007 -0.0187735 -0.00117894 6.66512e-005 -2.04115e-006 -4.2154e-007 2.9842e-007 -2.04121e-006 -4.21496e-007 2.98468e-007 -0.0122652 -0.0032449 0.000682165 -2.04117e-006 -4.21505e-007 2.98478e-007 -2.04121e-006 -4.21496e-007 2.98468e-007 -2.36431e-006 -2.36107e-006 9.19242e-008 -2.04121e-006 -4.21496e-007 2.98468e-007 12.508 9.02524 -16.7159 -0.687211 -0.564426 64.0434 10.7778 -8.96957 38.7564 29.9476 -31.2664 20.0129 1.32417e-031 4.77083e-015 -1.59028e-015 -3.18055e-015 1.98785e-015 3.18055e-015 -6.36111e-015 6.36111e-015 -3.18055e-015 1.32417e-031 4.77083e-015 -1.59028e-015 0.0150196 -9.68325e-005 -1.72974e-006 -3.18055e-015 -7.95139e-016 -0 1.32417e-031 4.77083e-015 -1.59028e-015 0.0190383 -0.001187 -6.05479e-005 -0 -2.78299e-015 -0 1.32417e-031 4.77083e-015 -1.59028e-015 0.0122625 -0.00324945 -0.000678562 -0 -7.95139e-016 -0 1.32417e-031 4.77083e-015 -1.59028e-015 -3.18055e-015 1.98785e-015 3.18055e-015 -6.36111e-015 6.36111e-015 -3.18055e-015 -34.5319 -60.1301 -31.8728 50.8954 40.7766 -72.4638 -13.4197 16.2457 19.4142 -1.20422e-005 -1.54552e-006 5.88615e-007 38.7374 -63.0403 35.774 -65.1081 46.6607 83.498 13.9854 15.1334 -19.3658 1.72545e-006 -5.45491e-007 -1.59877e-006 
1.38246 95.8915 5.65066 166.667 -7.51338 1.45433e-008 -0.122353 -5.59613 -0.268539 -0.273145 -11.1916 -0.553132 -0.273143 -11.1916 -0.553131 1.05247e-005 18.441 -8.40172e-006 -1.57299e-006 -10.2011 -1.04465e-006 -23.573 13.3445 24.6557 0.308885 0.86079 -82.3606 -21.1517 -4.8959 -61.4328 -45.2277 -47.7406 -27.45 -2.50385e-007 -1.15584e-007 -3.25367e-007 6.36111e-015 3.18055e-015 -6.36111e-015 -2.50385e-007 -1.15584e-007 -3.25367e-007 -2.50385e-007 -1.15584e-007 -3.25367e-007 -0.0146375 -8.56426e-005 1.69128e-006 -2.50387e-007 -1.15543e-007 -3.25381e-007 -2.50385e-007 -1.15584e-007 -3.25367e-007 -0.0187678 -0.00116943 5.50465e-005 -2.50391e-007 -1.15531e-007 -3.25383e-007 -2.50385e-007 -1.15584e-007 -3.25367e-007 -0.0123065 -0.00326064 0.000677292 -2.50397e-007 -1.15548e-007 -3.25372e-007 -2.50385e-007 -1.15584e-007 -3.25367e-007 6.36111e-015 3.18055e-015 -6.36111e-015 -2.50385e-007 -1.15584e-007 -3.25367e-007 19.8041 12.2696 -24.5843 -0.810119 0.0930896 92.8531 19.1215 -9.24675 56.8041 52.3467 -42.2987 34.1925 1.61955e-007 1.17134e-006 5.76409e-007 -5.07382e-007 2.21968e-006 7.51189e-007 -8.82781e-032 3.18055e-015 1.59028e-015 1.61955e-007 1.17134e-006 5.76409e-007 0.0149799 -8.51352e-005 1.34794e-006 -1.59953e-007 -1.17143e-006 -5.76256e-007 1.61955e-007 1.17134e-006 5.76409e-007 0.0190458 -0.00120134 -5.84802e-005 -0 0 1.59028e-015 1.61955e-007 1.17134e-006 5.76409e-007 0.0123453 -0.00326941 -0.000681407 7.95139e-015 3.18055e-015 2.38542e-015 1.61955e-007 1.17134e-006 5.76409e-007 -5.07382e-007 2.21968e-006 7.51189e-007 -8.82781e-032 3.18055e-015 1.59028e-015 -111.918 -68.1074 -98.6358 86.9314 23.6036 -97.5631 -22.4741 21.1518 29.2636 1.66247e-006 -1.64909e-007 -7.93204e-008 119.369 -67.8343 104.576 -102.068 24.9169 105.54 21.9056 21.1268 -29.1316 -2.48329e-006 -9.93017e-008 -5.94911e-007 
-0.132447 95.1171 5.54977 -180 -6.99617 -7.01671e-015 -0.1105 -5.10195 -0.249999 -0.244918 -10.2033 -0.512993 -0.244918 -10.2033 -0.512993 2.59819e-006 17.7105 -4.13637e-008 -8.49303e-008 -11.0559 -3.71988e-007 -21.4358 12.2356 22.8692 0.179656 1.38525 -76.7065 -19.4381 -4.99235 -57.7126 -39.7308 -45.1152 -23.9374 -0 -3.18055e-015 -0 -3.18055e-015 -3.18055e-015 -1.59028e-015 8.82781e-032 -3.18055e-015 1.59028e-015 -0 -3.18055e-015 -0 -0.0145601 -9.07001e-005 -8.37494e-007 6.36111e-015 0 1.59028e-015 -0 -3.18055e-015 -0 -0.0187561 -0.00118397 5.97024e-005 -1.27222e-014 1.59028e-015 3.18055e-015 -0 -3.18055e-015 -0 -0.0122999 -0.00325214 0.000673394 -7.25863e-007 1.7251e-006 3.97369e-007 -0 -3.18055e-015 -0 -3.18055e-015 -3.18055e-015 -1.59028e-015 8.82781e-032 -3.18055e-015 1.59028e-015 18.0018 11.1716 -22.9099 -0.755432 -0.107734 86.4526 17.32 -9.28333 53.4611 46.3726 -40.3594 30.3637 -6.36111e-015 6.36111e-015 1.59028e-015 2.57885e-006 -9.32068e-007 4.23645e-006 -3.18055e-015 3.18055e-015 3.18055e-015 -6.36111e-015 6.36111e-015 1.59028e-015 0.0149886 -9.08649e-005 2.08784e-006 -6.36111e-015 0 3.18055e-015 -6.36111e-015 6.36111e-015 1.59028e-015 0.0189574 -0.00118656 -5.67419e-005 -9.54166e-015 6.36111e-015 -0 -6.36111e-015 6.36111e-015 1.59028e-015 0.0122882 -0.00325485 -0.000676883 -1.76556e-031 3.18055e-015 3.18055e-015 -6.36111e-015 6.36111e-015 1.59028e-015 2.57885e-006 -9.32068e-007 4.23645e-006 -3.18055e-015 3.18055e-015 3.18055e-015 -90.9544 -69.5199 -80.7859 80.4674 28.5616 -94.7507 -20.3856 19.5915 27.2987 1.43975e-008 4.72277e-007 6.62333e-008 99.4316 -70.2028 88.1396 -95.5628 30.4963 104.058 20.157 19.4028 -27.146 7.4391e-008 -1.37252e-007 -9.40828e-007 
